<mxfile host="app.diagrams.net" modified="2024-05-08T10:20:09.510Z" agent="Mozilla/5.0 (Windows NT 10.0; Win64; x64) AppleWebKit/537.36 (KHTML, like Gecko) Chrome/124.0.0.0 Safari/537.36 Edg/124.0.0.0" etag="UIx11MOSKvoRV5lgApOT" version="24.3.1" type="github">
  <diagram id="C5RBs43oDa-KdzZeNtuy" name="Page-1">
    <mxGraphModel dx="1473" dy="829" grid="1" gridSize="10" guides="1" tooltips="1" connect="1" arrows="1" fold="1" page="1" pageScale="1" pageWidth="827" pageHeight="1169" math="0" shadow="0">
      <root>
        <mxCell id="WIyWlLk6GJQsqaUBKTNV-0" />
        <mxCell id="WIyWlLk6GJQsqaUBKTNV-1" parent="WIyWlLk6GJQsqaUBKTNV-0" />
        <mxCell id="WMCmR-eDk-zU3f8c0aIO-0" value="Start" style="rounded=1;whiteSpace=wrap;html=1;" parent="WIyWlLk6GJQsqaUBKTNV-1" vertex="1">
          <mxGeometry x="90" y="40" width="120" height="60" as="geometry" />
        </mxCell>
        <mxCell id="WMCmR-eDk-zU3f8c0aIO-2" value="" style="endArrow=classic;html=1;rounded=0;exitX=0.5;exitY=1;exitDx=0;exitDy=0;entryX=0.5;entryY=0;entryDx=0;entryDy=0;" parent="WIyWlLk6GJQsqaUBKTNV-1" source="WMCmR-eDk-zU3f8c0aIO-0" edge="1" target="WMCmR-eDk-zU3f8c0aIO-4">
          <mxGeometry width="50" height="50" relative="1" as="geometry">
            <mxPoint x="390" y="430" as="sourcePoint" />
            <mxPoint x="150" y="180" as="targetPoint" />
          </mxGeometry>
        </mxCell>
        <mxCell id="WMCmR-eDk-zU3f8c0aIO-6" style="edgeStyle=orthogonalEdgeStyle;rounded=0;orthogonalLoop=1;jettySize=auto;html=1;exitX=0.5;exitY=1;exitDx=0;exitDy=0;entryX=0.5;entryY=0;entryDx=0;entryDy=0;" parent="WIyWlLk6GJQsqaUBKTNV-1" source="WMCmR-eDk-zU3f8c0aIO-4" target="WMCmR-eDk-zU3f8c0aIO-5" edge="1">
          <mxGeometry relative="1" as="geometry" />
        </mxCell>
        <mxCell id="WMCmR-eDk-zU3f8c0aIO-4" value="Setze Pandas Optionen" style="rounded=0;whiteSpace=wrap;html=1;" parent="WIyWlLk6GJQsqaUBKTNV-1" vertex="1">
          <mxGeometry x="90" y="130" width="120" height="60" as="geometry" />
        </mxCell>
        <mxCell id="WMCmR-eDk-zU3f8c0aIO-8" style="edgeStyle=orthogonalEdgeStyle;rounded=0;orthogonalLoop=1;jettySize=auto;html=1;exitX=0.5;exitY=1;exitDx=0;exitDy=0;" parent="WIyWlLk6GJQsqaUBKTNV-1" source="WMCmR-eDk-zU3f8c0aIO-5" target="WMCmR-eDk-zU3f8c0aIO-7" edge="1">
          <mxGeometry relative="1" as="geometry" />
        </mxCell>
        <mxCell id="WMCmR-eDk-zU3f8c0aIO-5" value="get_All_Excel_Files_From_Folder()" style="rounded=0;whiteSpace=wrap;html=1;" parent="WIyWlLk6GJQsqaUBKTNV-1" vertex="1">
          <mxGeometry x="45" y="220" width="210" height="60" as="geometry" />
        </mxCell>
        <mxCell id="WMCmR-eDk-zU3f8c0aIO-10" style="edgeStyle=orthogonalEdgeStyle;rounded=0;orthogonalLoop=1;jettySize=auto;html=1;exitX=1;exitY=0.5;exitDx=0;exitDy=0;entryX=0;entryY=0.5;entryDx=0;entryDy=0;" parent="WIyWlLk6GJQsqaUBKTNV-1" source="WMCmR-eDk-zU3f8c0aIO-7" target="WMCmR-eDk-zU3f8c0aIO-9" edge="1">
          <mxGeometry relative="1" as="geometry" />
        </mxCell>
        <mxCell id="WMCmR-eDk-zU3f8c0aIO-11" value="True" style="edgeLabel;html=1;align=center;verticalAlign=middle;resizable=0;points=[];" parent="WMCmR-eDk-zU3f8c0aIO-10" vertex="1" connectable="0">
          <mxGeometry x="-0.2" relative="1" as="geometry">
            <mxPoint as="offset" />
          </mxGeometry>
        </mxCell>
        <mxCell id="WMCmR-eDk-zU3f8c0aIO-20" style="edgeStyle=orthogonalEdgeStyle;rounded=0;orthogonalLoop=1;jettySize=auto;html=1;exitX=0;exitY=0.5;exitDx=0;exitDy=0;" parent="WIyWlLk6GJQsqaUBKTNV-1" edge="1">
          <mxGeometry relative="1" as="geometry">
            <mxPoint x="90" y="780" as="targetPoint" />
            <Array as="points">
              <mxPoint x="40" y="360" />
              <mxPoint x="40" y="780" />
              <mxPoint x="85" y="780" />
            </Array>
            <mxPoint x="60" y="360.0000000000001" as="sourcePoint" />
          </mxGeometry>
        </mxCell>
        <mxCell id="WMCmR-eDk-zU3f8c0aIO-22" value="False" style="edgeLabel;html=1;align=center;verticalAlign=middle;resizable=0;points=[];" parent="WMCmR-eDk-zU3f8c0aIO-20" vertex="1" connectable="0">
          <mxGeometry x="-0.5158" y="-3" relative="1" as="geometry">
            <mxPoint as="offset" />
          </mxGeometry>
        </mxCell>
        <mxCell id="WMCmR-eDk-zU3f8c0aIO-7" value="For File in List" style="rhombus;whiteSpace=wrap;html=1;" parent="WIyWlLk6GJQsqaUBKTNV-1" vertex="1">
          <mxGeometry x="70" y="300" width="160" height="140" as="geometry" />
        </mxCell>
        <mxCell id="WMCmR-eDk-zU3f8c0aIO-13" style="edgeStyle=orthogonalEdgeStyle;rounded=0;orthogonalLoop=1;jettySize=auto;html=1;entryX=0.5;entryY=0;entryDx=0;entryDy=0;" parent="WIyWlLk6GJQsqaUBKTNV-1" source="WMCmR-eDk-zU3f8c0aIO-9" target="WMCmR-eDk-zU3f8c0aIO-12" edge="1">
          <mxGeometry relative="1" as="geometry" />
        </mxCell>
        <mxCell id="WMCmR-eDk-zU3f8c0aIO-9" value="Nummeriert die Spalten des Dataframes" style="rounded=0;whiteSpace=wrap;html=1;" parent="WIyWlLk6GJQsqaUBKTNV-1" vertex="1">
          <mxGeometry x="280" y="340" width="120" height="60" as="geometry" />
        </mxCell>
        <mxCell id="WMCmR-eDk-zU3f8c0aIO-15" style="edgeStyle=orthogonalEdgeStyle;rounded=0;orthogonalLoop=1;jettySize=auto;html=1;entryX=0.5;entryY=0;entryDx=0;entryDy=0;" parent="WIyWlLk6GJQsqaUBKTNV-1" source="WMCmR-eDk-zU3f8c0aIO-12" target="WMCmR-eDk-zU3f8c0aIO-14" edge="1">
          <mxGeometry relative="1" as="geometry" />
        </mxCell>
        <mxCell id="WMCmR-eDk-zU3f8c0aIO-12" value="Suche das Wort, das die obere Grenze des Dataframes definiert&amp;nbsp;" style="rounded=0;whiteSpace=wrap;html=1;" parent="WIyWlLk6GJQsqaUBKTNV-1" vertex="1">
          <mxGeometry x="280" y="430" width="120" height="60" as="geometry" />
        </mxCell>
        <mxCell id="WMCmR-eDk-zU3f8c0aIO-17" style="edgeStyle=orthogonalEdgeStyle;rounded=0;orthogonalLoop=1;jettySize=auto;html=1;entryX=0.5;entryY=0;entryDx=0;entryDy=0;" parent="WIyWlLk6GJQsqaUBKTNV-1" source="WMCmR-eDk-zU3f8c0aIO-14" target="WMCmR-eDk-zU3f8c0aIO-16" edge="1">
          <mxGeometry relative="1" as="geometry" />
        </mxCell>
        <mxCell id="WMCmR-eDk-zU3f8c0aIO-14" value="Suche das Wort, das die untere Grenze des Dataframes definiert&amp;nbsp;" style="rounded=0;whiteSpace=wrap;html=1;" parent="WIyWlLk6GJQsqaUBKTNV-1" vertex="1">
          <mxGeometry x="280" y="520" width="120" height="60" as="geometry" />
        </mxCell>
        <mxCell id="WMCmR-eDk-zU3f8c0aIO-18" style="edgeStyle=orthogonalEdgeStyle;rounded=0;orthogonalLoop=1;jettySize=auto;html=1;entryX=0.5;entryY=1;entryDx=0;entryDy=0;exitX=0.5;exitY=1;exitDx=0;exitDy=0;" parent="WIyWlLk6GJQsqaUBKTNV-1" source="WMCmR-eDk-zU3f8c0aIO-16" target="WMCmR-eDk-zU3f8c0aIO-7" edge="1">
          <mxGeometry relative="1" as="geometry">
            <Array as="points">
              <mxPoint x="340" y="720" />
              <mxPoint x="150" y="720" />
            </Array>
            <mxPoint x="340.0344827586207" y="680" as="sourcePoint" />
            <mxPoint x="150" y="450.0000000000001" as="targetPoint" />
          </mxGeometry>
        </mxCell>
        <mxCell id="WMCmR-eDk-zU3f8c0aIO-16" value="Generiere neuen Dataframe anhand der WÃ¶rter" style="rounded=0;whiteSpace=wrap;html=1;" parent="WIyWlLk6GJQsqaUBKTNV-1" vertex="1">
          <mxGeometry x="280" y="610" width="120" height="60" as="geometry" />
        </mxCell>
        <mxCell id="WMCmR-eDk-zU3f8c0aIO-25" style="edgeStyle=orthogonalEdgeStyle;rounded=0;orthogonalLoop=1;jettySize=auto;html=1;entryX=0.5;entryY=0;entryDx=0;entryDy=0;" parent="WIyWlLk6GJQsqaUBKTNV-1" source="WMCmR-eDk-zU3f8c0aIO-19" target="WMCmR-eDk-zU3f8c0aIO-24" edge="1">
          <mxGeometry relative="1" as="geometry" />
        </mxCell>
        <mxCell id="WMCmR-eDk-zU3f8c0aIO-19" value="Sortiere das Dictionary nach Datum (Keys)" style="rounded=0;whiteSpace=wrap;html=1;" parent="WIyWlLk6GJQsqaUBKTNV-1" vertex="1">
          <mxGeometry x="95" y="750" width="120" height="60" as="geometry" />
        </mxCell>
        <mxCell id="WMCmR-eDk-zU3f8c0aIO-27" style="edgeStyle=orthogonalEdgeStyle;rounded=0;orthogonalLoop=1;jettySize=auto;html=1;entryX=0;entryY=0.5;entryDx=0;entryDy=0;" parent="WIyWlLk6GJQsqaUBKTNV-1" source="WMCmR-eDk-zU3f8c0aIO-24" target="WMCmR-eDk-zU3f8c0aIO-26" edge="1">
          <mxGeometry relative="1" as="geometry">
            <mxPoint x="290" y="1280" as="targetPoint" />
          </mxGeometry>
        </mxCell>
        <mxCell id="WMCmR-eDk-zU3f8c0aIO-39" value="True" style="edgeLabel;html=1;align=center;verticalAlign=middle;resizable=0;points=[];" parent="WMCmR-eDk-zU3f8c0aIO-27" vertex="1" connectable="0">
          <mxGeometry x="-0.1758" y="-2" relative="1" as="geometry">
            <mxPoint as="offset" />
          </mxGeometry>
        </mxCell>
        <mxCell id="WMCmR-eDk-zU3f8c0aIO-42" style="edgeStyle=orthogonalEdgeStyle;rounded=0;orthogonalLoop=1;jettySize=auto;html=1;entryX=0;entryY=0.5;entryDx=0;entryDy=0;" parent="WIyWlLk6GJQsqaUBKTNV-1" source="WMCmR-eDk-zU3f8c0aIO-24" target="WMCmR-eDk-zU3f8c0aIO-41" edge="1">
          <mxGeometry relative="1" as="geometry">
            <mxPoint x="40" y="2020" as="targetPoint" />
            <Array as="points">
              <mxPoint x="50" y="920" />
              <mxPoint x="50" y="1450" />
            </Array>
          </mxGeometry>
        </mxCell>
        <mxCell id="WMCmR-eDk-zU3f8c0aIO-24" value="For File in List" style="rhombus;whiteSpace=wrap;html=1;" parent="WIyWlLk6GJQsqaUBKTNV-1" vertex="1">
          <mxGeometry x="90" y="850" width="130" height="140" as="geometry" />
        </mxCell>
        <mxCell id="WMCmR-eDk-zU3f8c0aIO-29" style="edgeStyle=orthogonalEdgeStyle;rounded=0;orthogonalLoop=1;jettySize=auto;html=1;entryX=0.5;entryY=0;entryDx=0;entryDy=0;" parent="WIyWlLk6GJQsqaUBKTNV-1" source="WMCmR-eDk-zU3f8c0aIO-26" target="WMCmR-eDk-zU3f8c0aIO-28" edge="1">
          <mxGeometry relative="1" as="geometry" />
        </mxCell>
        <mxCell id="WMCmR-eDk-zU3f8c0aIO-26" value="Auswertung mit der 0/100 Methode" style="rounded=0;whiteSpace=wrap;html=1;" parent="WIyWlLk6GJQsqaUBKTNV-1" vertex="1">
          <mxGeometry x="293" y="890" width="120" height="60" as="geometry" />
        </mxCell>
        <mxCell id="WMCmR-eDk-zU3f8c0aIO-31" style="edgeStyle=orthogonalEdgeStyle;rounded=0;orthogonalLoop=1;jettySize=auto;html=1;entryX=0.5;entryY=0;entryDx=0;entryDy=0;" parent="WIyWlLk6GJQsqaUBKTNV-1" source="WMCmR-eDk-zU3f8c0aIO-28" target="WMCmR-eDk-zU3f8c0aIO-30" edge="1">
          <mxGeometry relative="1" as="geometry" />
        </mxCell>
        <mxCell id="WMCmR-eDk-zU3f8c0aIO-28" value="Auswertung mit der 20/80 Methode" style="rounded=0;whiteSpace=wrap;html=1;" parent="WIyWlLk6GJQsqaUBKTNV-1" vertex="1">
          <mxGeometry x="293" y="980" width="120" height="60" as="geometry" />
        </mxCell>
        <mxCell id="WMCmR-eDk-zU3f8c0aIO-33" style="edgeStyle=orthogonalEdgeStyle;rounded=0;orthogonalLoop=1;jettySize=auto;html=1;entryX=0.5;entryY=0;entryDx=0;entryDy=0;" parent="WIyWlLk6GJQsqaUBKTNV-1" source="WMCmR-eDk-zU3f8c0aIO-30" target="WMCmR-eDk-zU3f8c0aIO-32" edge="1">
          <mxGeometry relative="1" as="geometry" />
        </mxCell>
        <mxCell id="WMCmR-eDk-zU3f8c0aIO-30" value="Auswertung mit der 50/50 Methode" style="rounded=0;whiteSpace=wrap;html=1;" parent="WIyWlLk6GJQsqaUBKTNV-1" vertex="1">
          <mxGeometry x="293" y="1070" width="120" height="60" as="geometry" />
        </mxCell>
        <mxCell id="WMCmR-eDk-zU3f8c0aIO-35" style="edgeStyle=orthogonalEdgeStyle;rounded=0;orthogonalLoop=1;jettySize=auto;html=1;entryX=0.5;entryY=0;entryDx=0;entryDy=0;" parent="WIyWlLk6GJQsqaUBKTNV-1" source="WMCmR-eDk-zU3f8c0aIO-32" target="WMCmR-eDk-zU3f8c0aIO-34" edge="1">
          <mxGeometry relative="1" as="geometry" />
        </mxCell>
        <mxCell id="WMCmR-eDk-zU3f8c0aIO-32" value="LÃ¶schen der Spalten &quot;EAC&quot; &amp;amp; &quot;SUM&quot;" style="rounded=0;whiteSpace=wrap;html=1;" parent="WIyWlLk6GJQsqaUBKTNV-1" vertex="1">
          <mxGeometry x="293" y="1160" width="120" height="60" as="geometry" />
        </mxCell>
        <mxCell id="WMCmR-eDk-zU3f8c0aIO-37" style="edgeStyle=orthogonalEdgeStyle;rounded=0;orthogonalLoop=1;jettySize=auto;html=1;entryX=0.5;entryY=0;entryDx=0;entryDy=0;" parent="WIyWlLk6GJQsqaUBKTNV-1" source="WMCmR-eDk-zU3f8c0aIO-34" target="WMCmR-eDk-zU3f8c0aIO-36" edge="1">
          <mxGeometry relative="1" as="geometry" />
        </mxCell>
        <mxCell id="WMCmR-eDk-zU3f8c0aIO-34" value="Berechnen der absoluten Zahlen zu den Methoden" style="rounded=0;whiteSpace=wrap;html=1;" parent="WIyWlLk6GJQsqaUBKTNV-1" vertex="1">
          <mxGeometry x="293" y="1250" width="120" height="60" as="geometry" />
        </mxCell>
        <mxCell id="WMCmR-eDk-zU3f8c0aIO-38" style="edgeStyle=orthogonalEdgeStyle;rounded=0;orthogonalLoop=1;jettySize=auto;html=1;entryX=0.5;entryY=1;entryDx=0;entryDy=0;" parent="WIyWlLk6GJQsqaUBKTNV-1" source="WMCmR-eDk-zU3f8c0aIO-36" target="WMCmR-eDk-zU3f8c0aIO-24" edge="1">
          <mxGeometry relative="1" as="geometry" />
        </mxCell>
        <mxCell id="WMCmR-eDk-zU3f8c0aIO-40" value="False" style="edgeLabel;html=1;align=center;verticalAlign=middle;resizable=0;points=[];" parent="WMCmR-eDk-zU3f8c0aIO-38" vertex="1" connectable="0">
          <mxGeometry x="0.4278" y="2" relative="1" as="geometry">
            <mxPoint as="offset" />
          </mxGeometry>
        </mxCell>
        <mxCell id="WMCmR-eDk-zU3f8c0aIO-36" value="Ziehen der Summen pro Spalte" style="rounded=0;whiteSpace=wrap;html=1;" parent="WIyWlLk6GJQsqaUBKTNV-1" vertex="1">
          <mxGeometry x="293" y="1340" width="120" height="60" as="geometry" />
        </mxCell>
        <mxCell id="WMCmR-eDk-zU3f8c0aIO-44" style="edgeStyle=orthogonalEdgeStyle;rounded=0;orthogonalLoop=1;jettySize=auto;html=1;entryX=0.5;entryY=0;entryDx=0;entryDy=0;" parent="WIyWlLk6GJQsqaUBKTNV-1" source="WMCmR-eDk-zU3f8c0aIO-41" target="WMCmR-eDk-zU3f8c0aIO-43" edge="1">
          <mxGeometry relative="1" as="geometry" />
        </mxCell>
        <mxCell id="WMCmR-eDk-zU3f8c0aIO-41" value="Finalisieren des Dataframes&lt;div&gt;&lt;br&gt;&lt;/div&gt;" style="rounded=0;whiteSpace=wrap;html=1;" parent="WIyWlLk6GJQsqaUBKTNV-1" vertex="1">
          <mxGeometry x="95" y="1420" width="120" height="60" as="geometry" />
        </mxCell>
        <mxCell id="WMCmR-eDk-zU3f8c0aIO-43" value="Speichern in Excel" style="rounded=0;whiteSpace=wrap;html=1;" parent="WIyWlLk6GJQsqaUBKTNV-1" vertex="1">
          <mxGeometry x="95" y="1510" width="120" height="60" as="geometry" />
        </mxCell>
      </root>
    </mxGraphModel>
  </diagram>
</mxfile>
